<svg xmlns="http://www.w3.org/2000/svg" width="288.539" height="262.801" viewBox="137.73 150.6 288.539 262.801"><path fill="#F00" d="M243.795 282.533h13.64l24.205-42.674-6.82-11.676z"/><path fill="#FCD700" d="M281.748 268.267l16.086-28.407-6.817-11.677-22.869 40.084z"/><path fill="#A3E0BB" d="M299.495 242.04l23.142 40.91-13.588-.004-16.375-29.231z"/><g fill="#241F20"><path d="M171.812 374.348v-43.449h-.213l-12.263 43.449h-4.581l-12.192-43.449h-.212v43.449h-4.663v-50.02h7.347l11.939 42.247h.283l11.797-42.247h7.63v50.02h-4.872zM243.624 364.139c-.495 2.285-1.296 4.273-2.402 5.971-1.107 1.695-2.579 3.027-4.415 3.992-1.837.965-4.098 1.447-6.782 1.447-2.685 0-4.935-.482-6.747-1.447a11.726 11.726 0 0 1-4.381-3.992c-1.107-1.697-1.896-3.686-2.366-5.971-.471-2.283-.706-4.721-.706-7.312v-32.498h4.945v31.863c0 1.836.129 3.65.388 5.439.259 1.791.73 3.38 1.414 4.768.681 1.391 1.625 2.51 2.826 3.356 1.201.849 2.767 1.272 4.699 1.272 1.883 0 3.437-.424 4.663-1.272 1.224-.847 2.178-1.966 2.861-3.356.682-1.388 1.153-2.965 1.412-4.732.259-1.766.389-3.591.389-5.475v-31.863h4.945v32.498c-.002 2.591-.249 5.028-.743 7.312zM303.851 374.348l-9.044-23.173h-6.428v23.173h-4.875v-50.02h12.01c1.648 0 3.238.225 4.77.672a10.888 10.888 0 0 1 4.097 2.225c1.202 1.037 2.167 2.402 2.897 4.098.73 1.697 1.095 3.77 1.095 6.217 0 2.119-.272 3.945-.812 5.477-.543 1.529-1.25 2.814-2.12 3.85-.872 1.037-1.837 1.837-2.896 2.402-1.061.564-2.109.919-3.145 1.059l9.749 24.021h-5.298zm-.283-36.56c0-1.783-.248-3.273-.742-4.47s-1.154-2.146-1.979-2.85a7.104 7.104 0 0 0-2.825-1.479 12.771 12.771 0 0 0-3.285-.422h-6.358v18.721h6.57c2.684 0 4.791-.832 6.322-2.498 1.53-1.665 2.297-4 2.297-7.002zM366.727 374.348l-3.037-12.506h-15.402l-3.179 12.506h-5.016l12.715-50.02h6.713l12.363 50.02h-5.157zM356.2 328.779h-.283l-6.922 29.107h13.987l-6.782-29.107zM406.359 374.348v-50.02h4.945v45.427h14.271v4.593h-19.216z"/></g></svg>